<svg xmlns="http://www.w3.org/2000/svg"><style>:root svg:not(:target){display:none}</style>
<svg id="logo-img-mobile" fill="none" viewBox="0 0 34 38"><g clip-path="url(#a)"><path fill="#FDC305" d="M6 20.7v-2.2c6.8-1 13.5-1.4 20.2-1.4V19c1.9-.8 4-1.4 6-1.8a16.7 16.7 0 0 0-32 3.3l5.9.3ZM27.2 24.2c-1.1 1.3-1.3 1.2-1.3 3.5v9.2a16.6 16.6 0 0 0 7.1-17c-2 1.2-4 2.7-5.8 4.3ZM6.4 25.7 1.2 24 0 23.6a16.6 16.6 0 0 0 8.7 14L6.4 25.7Z"/><path fill="#F06351" d="M26.3 17.1c0-5.5-.4-11-1.4-16.5 0 0-.1-1.2-.9-.2-.6 1.3-1 2.6-1.2 4-4.3-.3-8.5-.2-12.8.3C9.2 2 7.8.7 7.2 1c-.7.3-.7 3.3-.7 3.3L6 18.4c6.7-.9 13.4-1.3 20.2-1.3Z"/><path fill="#000" d="m12.4 14 1.4 1c.4.2.6.3.6.5s-.2.3-.6.3c-.4 0-1 0-1-.2H14L12.4 14ZM19.9 14.1l-1.1 1.3c0 .1-.2.4.2.3l1.2-.3-.1-.1h-1l.8-1.2s.1-.1 0 0ZM16.8 20.2c.4-.2.8-.6 1-1 .3-.6 0-1-.4-1-.6-.1-1.2 0-1.7.3-.4.4-.4.8 0 1l1 .7Z"/><path fill="#F06351" d="M16.4 21.4a2 2 0 0 1-.5.7c-.3.2-.6.3-1 .3-.5 0-1 0-1.5-.4l-.5-.4a1 1 0 0 0-.4-.3s.8 4.1 2.6 4.8c1.8.6 2.1-.8 2.2-1.2 0-1.1-.2-2.2-.8-3.2l-.1-.3Z"/><path fill="#000" d="M14.7 22.6a3.4 3.4 0 0 1-2.4-1.5.1.1 0 0 1 0-.1.1.1 0 0 1 .3 0c.5.7 1.2 1.1 2 1.3a2 2 0 0 0 1.7-1l.2-.2v.2s.4.8 1 .8c.7 0 1.1-.4 1.7-1.3a.1.1 0 0 1 .2 0 .2.2 0 0 1 0 .2c-.6 1-1.3 1.4-1.9 1.4a1.5 1.5 0 0 1-1-.8 2.3 2.3 0 0 1-1.8 1Z"/><path fill="#F06351" d="M26.2 19a58.6 58.6 0 0 0-5 5.1 31.6 31.6 0 0 1-5.3 4.9c-.2-.5-1.6-1.5-1.6-1.5S11 25.4 9 23.7l-3.1-3-2-.1c2.8 4.2 7 7.3 12 8.8.8-.2 3.2-1.9 5-3.3 2.1-1.8 4.1-3.8 6-5.9.5-.6.8-1.3 1.1-2l-1.9.7Z"/></g><defs><clipPath id="a"><path fill="#fff" d="M0 0h33.3v37.6H0z"/></clipPath></defs></svg>
<svg id="logo-text-mobile" fill="none" viewBox="0 0 101 18"><g fill="#111" clip-path="url(#a)"><path d="M1.26 16.54A6.86 6.86 0 0 1 0 12.24v-6.4C-.1 4.3.3 2.77 1.19 1.47 2.05.46 3.39 0 5.37 0 7.35 0 8.61.46 9.4 1.3a5.42 5.42 0 0 1 1.19 3.78v1.54H6.72V4.85a3.7 3.7 0 0 0-.24-1.54 1.16 1.16 0 0 0-1.1-.62c-.56 0-.95.16-1.11.54a4.85 4.85 0 0 0-.24 1.7v8.22c-.04.56.07 1.12.32 1.62.15.38.55.54 1.1.54.56 0 .87-.16 1.03-.54.18-.52.26-1.07.24-1.62v-1.84h3.87v1.54a5.77 5.77 0 0 1-1.19 3.84c-.79.93-2.13 1.39-4.03 1.39-1.9-.08-3.32-.54-4.1-1.54ZM15.25.23h4.5l3.33 17.54h-3.64l-.63-3.7h-2.6l-.64 3.7h-3.72L15.25.23Zm3.24 11.54-.95-6.85-.94 6.85h1.9ZM25.84 3.15h-2.68V.23h9.4v2.85h-2.69v14.69h-4.03V3.15ZM39.75.23h6.96v1.85h-4.5v5.77h3.63v1.77H42.2v6.46h4.5v1.77h-7.03V.23h.08ZM48.76.23h1.74l5.14 11.62V.23h2.05v17.54h-1.58l-5.21-12v12h-2.14V.23ZM60.06.23h6.96v1.85h-4.5v5.77h3.63v1.77H62.5v6.46h4.5v1.77h-6.95V.23ZM69.07.23h3.64c1.43-.1 2.85.28 4.03 1.08C77.6 2 78 3.23 78 4.85c0 2.23-.7 3.61-2.21 4.07l2.53 8.77h-2.45L73.5 9.46h-1.98v8.23H69V.23h.08Zm3.48 7.54c.81.06 1.63-.15 2.3-.62.47-.38.7-1.15.7-2.3a4.85 4.85 0 0 0-.23-1.7c-.18-.39-.49-.71-.87-.92a3.69 3.69 0 0 0-1.74-.3h-1.1v5.76h.94v.08ZM81.16 16.46a7.61 7.61 0 0 1-1.1-4.46V6.15c-.02-1.11.11-2.22.4-3.3.26-.81.78-1.51 1.5-2 .88-.51 1.9-.75 2.92-.7 1.66 0 2.84.39 3.55 1.23a5.77 5.77 0 0 1 1.11 3.85v.62h-2.37V5.3c0-.65-.05-1.29-.16-1.93-.06-.4-.3-.76-.63-1a2.5 2.5 0 0 0-1.5-.38 2.42 2.42 0 0 0-1.58.46 1.75 1.75 0 0 0-.63 1.23c-.1.69-.16 1.38-.16 2.08v6.54c-.06 1 .1 2 .47 2.92.32.62.95.85 1.9.85a1.96 1.96 0 0 0 1.9-.93c.41-.97.6-2.02.55-3.07v-1.23h-2.3V9.08h4.59v8.69h-1.58l-.24-2c-.2.67-.64 1.25-1.22 1.66-.6.4-1.3.6-2.02.57a4.05 4.05 0 0 1-3.4-1.54ZM94.68 11.62 90.8.3h2.37l2.76 8.46L98.63.3H101l-3.87 11.3v6.16h-2.37v-6.15h-.08Z"/></g><defs><clipPath id="a"><path fill="#fff" d="M0 0h101v18H0z"/></clipPath></defs></svg>

</svg>
