<svg xmlns="http://www.w3.org/2000/svg"><style>:root svg:not(:target){display:none}</style>
<svg id="logo-img-mobile" fill="none" viewBox="0 0 34 38"><g clip-path="url(#a)"><path fill="#FDC305" d="M6 20.7v-2.2c6.8-1 13.5-1.4 20.2-1.4V19c1.9-.8 4-1.4 6-1.8a16.7 16.7 0 0 0-32 3.3l5.9.3ZM27.2 24.2c-1.1 1.3-1.3 1.2-1.3 3.5v9.2a16.6 16.6 0 0 0 7.1-17c-2 1.2-4 2.7-5.8 4.3ZM6.4 25.7 1.2 24 0 23.6a16.6 16.6 0 0 0 8.7 14L6.4 25.7Z"/><path fill="#F06351" d="M26.3 17.1c0-5.5-.4-11-1.4-16.5 0 0-.1-1.2-.9-.2-.6 1.3-1 2.6-1.2 4-4.3-.3-8.5-.2-12.8.3C9.2 2 7.8.7 7.2 1c-.7.3-.7 3.3-.7 3.3L6 18.4c6.7-.9 13.4-1.3 20.2-1.3Z"/><path fill="#000" d="m12.4 14 1.4 1c.4.2.6.3.6.5s-.2.3-.6.3c-.4 0-1 0-1-.2H14L12.4 14ZM19.9 14.1l-1.1 1.3c0 .1-.2.4.2.3l1.2-.3-.1-.1h-1l.8-1.2s.1-.1 0 0ZM16.8 20.2c.4-.2.8-.6 1-1 .3-.6 0-1-.4-1-.6-.1-1.2 0-1.7.3-.4.4-.4.8 0 1l1 .7Z"/><path fill="#F06351" d="M16.4 21.4a2 2 0 0 1-.5.7c-.3.2-.6.3-1 .3-.5 0-1 0-1.5-.4l-.5-.4a1 1 0 0 0-.4-.3s.8 4.1 2.6 4.8c1.8.6 2.1-.8 2.2-1.2 0-1.1-.2-2.2-.8-3.2l-.1-.3Z"/><path fill="#000" d="M14.7 22.6a3.4 3.4 0 0 1-2.4-1.5.1.1 0 0 1 0-.1.1.1 0 0 1 .3 0c.5.7 1.2 1.1 2 1.3a2 2 0 0 0 1.7-1l.2-.2v.2s.4.8 1 .8c.7 0 1.1-.4 1.7-1.3a.1.1 0 0 1 .2 0 .2.2 0 0 1 0 .2c-.6 1-1.3 1.4-1.9 1.4a1.5 1.5 0 0 1-1-.8 2.3 2.3 0 0 1-1.8 1Z"/><path fill="#F06351" d="M26.2 19a58.6 58.6 0 0 0-5 5.1 31.6 31.6 0 0 1-5.3 4.9c-.2-.5-1.6-1.5-1.6-1.5S11 25.4 9 23.7l-3.1-3-2-.1c2.8 4.2 7 7.3 12 8.8.8-.2 3.2-1.9 5-3.3 2.1-1.8 4.1-3.8 6-5.9.5-.6.8-1.3 1.1-2l-1.9.7Z"/></g><defs><clipPath id="a"><path fill="#fff" d="M0 0h33.3v37.6H0z"/></clipPath></defs></svg>
<svg id="logo-text-mobile" fill="none" viewBox="0 0 101 18"><g fill="#111" clip-path="url(#a)"><path d="M1.26 16.54A6.86 6.86 0 0 1 0 12.24v-6.4C-.1 4.3.3 2.77 1.19 1.47 2.05.46 3.39 0 5.37 0 7.35 0 8.61.46 9.4 1.3a5.42 5.42 0 0 1 1.19 3.78v1.54H6.72V4.85a3.7 3.7 0 0 0-.24-1.54 1.16 1.16 0 0 0-1.1-.62c-.56 0-.95.16-1.11.54a4.85 4.85 0 0 0-.24 1.7v8.22c-.04.56.07 1.12.32 1.62.15.38.55.54 1.1.54.56 0 .87-.16 1.03-.54.18-.52.26-1.07.24-1.62v-1.84h3.87v1.54a5.77 5.77 0 0 1-1.19 3.84c-.79.93-2.13 1.39-4.03 1.39-1.9-.08-3.32-.54-4.1-1.54ZM15.25.23h4.5l3.33 17.54h-3.64l-.63-3.7h-2.6l-.64 3.7h-3.72L15.25.23Zm3.24 11.54-.95-6.85-.94 6.85h1.9ZM25.84 3.15h-2.68V.23h9.4v2.85h-2.69v14.69h-4.03V3.15ZM39.75.23h6.96v1.85h-4.5v5.77h3.63v1.77H42.2v6.46h4.5v1.77h-7.03V.23h.08ZM48.76.23h1.74l5.14 11.62V.23h2.05v17.54h-1.58l-5.21-12v12h-2.14V.23ZM60.06.23h6.96v1.85h-4.5v5.77h3.63v1.77H62.5v6.46h4.5v1.77h-6.95V.23ZM69.07.23h3.64c1.43-.1 2.85.28 4.03 1.08C77.6 2 78 3.23 78 4.85c0 2.23-.7 3.61-2.21 4.07l2.53 8.77h-2.45L73.5 9.46h-1.98v8.23H69V.23h.08Zm3.48 7.54c.81.06 1.63-.15 2.3-.62.47-.38.7-1.15.7-2.3a4.85 4.85 0 0 0-.23-1.7c-.18-.39-.49-.71-.87-.92a3.69 3.69 0 0 0-1.74-.3h-1.1v5.76h.94v.08ZM81.16 16.46a7.61 7.61 0 0 1-1.1-4.46V6.15c-.02-1.11.11-2.22.4-3.3.26-.81.78-1.51 1.5-2 .88-.51 1.9-.75 2.92-.7 1.66 0 2.84.39 3.55 1.23a5.77 5.77 0 0 1 1.11 3.85v.62h-2.37V5.3c0-.65-.05-1.29-.16-1.93-.06-.4-.3-.76-.63-1a2.5 2.5 0 0 0-1.5-.38 2.42 2.42 0 0 0-1.58.46 1.75 1.75 0 0 0-.63 1.23c-.1.69-.16 1.38-.16 2.08v6.54c-.06 1 .1 2 .47 2.92.32.62.95.85 1.9.85a1.96 1.96 0 0 0 1.9-.93c.41-.97.6-2.02.55-3.07v-1.23h-2.3V9.08h4.59v8.69h-1.58l-.24-2c-.2.67-.64 1.25-1.22 1.66-.6.4-1.3.6-2.02.57a4.05 4.05 0 0 1-3.4-1.54ZM94.68 11.62 90.8.3h2.37l2.76 8.46L98.63.3H101l-3.87 11.3v6.16h-2.37v-6.15h-.08Z"/></g><defs><clipPath id="a"><path fill="#fff" d="M0 0h101v18H0z"/></clipPath></defs></svg>
<svg id="logo-img-tablet" viewBox="0 0 61 51" fill="none">
<path d="M51.5819 19.854C50.0969 16.265 47.7053 13.1312 44.6456 10.7649C41.5858 8.39869 37.9646 6.88262 34.143 6.36781C30.3214 5.85301 26.4328 6.35745 22.8646 7.83086C19.2965 9.30427 16.1735 11.6952 13.8068 14.7654C11.4402 17.8355 9.9125 21.4777 9.37609 25.329C8.83968 29.1802 9.31325 33.106 10.7496 36.7151C12.186 40.3242 14.535 43.4906 17.5625 45.8987C20.59 48.3068 24.1903 49.8726 28.0046 50.4399C27.505 48.6238 26.9967 46.6166 26.5488 44.4878C27.8519 45.3405 29.2235 46.0816 30.6492 46.7035C30.6492 46.7035 30.7526 48.5804 30.8904 50.6745C32.4308 50.7013 33.9698 50.5644 35.4818 50.2661C35.4427 50.0477 35.4427 49.8241 35.4818 49.6057C35.7316 47.9808 36.4208 45.0526 36.5586 43.167C37.552 42.2297 38.3948 41.1421 39.0567 39.9434L39.005 40.3257C38.5312 44.0273 37.5406 47.9808 36.9376 49.0757C36.7424 49.4381 36.5021 49.7739 36.2226 50.0749C39.3408 49.3371 42.2626 47.924 44.7855 45.9336C47.3083 43.9433 49.3718 41.4233 50.8329 38.5484C52.2941 35.6735 53.1179 32.5124 53.2472 29.2843C53.3765 26.0563 52.8083 22.8385 51.5819 19.854ZM50.3156 23.1472C49.9366 23.5208 49.1527 23.7728 49.0235 22.6432C48.8942 21.5136 48.8598 20.7229 48.8598 20.7229C48.8598 20.7229 47.1972 17.7425 46.577 17.7078C45.9568 17.673 41.5549 20.7229 40.3919 22.0524C39.3841 23.1733 39.1859 23.0951 39.1859 25.0675C39.1859 26.5534 39.3755 32.1666 39.2721 36.459L32.2514 38.3446C30.0448 38.9834 27.8007 39.4825 25.5323 39.8391L24.6709 34.7733H24.5503L22.3364 23.3297C22.3364 23.3297 19.0543 22.0784 17.8483 21.7396C17.2821 21.4897 16.6568 21.4084 16.0462 21.5054C15.4356 21.6024 14.8653 21.8736 14.4026 22.287C13.9306 22.7039 13.5531 23.2185 13.296 23.7958C13.0388 24.373 12.908 24.9994 12.9124 25.6323C13.0945 26.0362 13.2331 26.4585 13.3258 26.8922C13.3689 27.3093 12.2921 27.2659 11.603 27.2659C10.9138 27.2659 10.8105 26.0146 11.3532 24.5462C11.7766 23.417 12.3013 22.3292 12.921 21.2964C13.387 20.3738 13.9881 19.5273 14.7041 18.7852C14.7041 18.7852 14.8247 18.4898 15.7809 18.5767C16.7371 18.6636 22.0521 18.9503 22.0521 18.9503L22.0952 16.9779C27.8722 16.1733 33.6987 15.7842 39.5305 15.8135C39.5305 16.3436 39.5305 16.8736 39.5305 17.4037C41.7394 16.3869 44.118 15.7974 46.5425 15.6658C46.6723 15.6625 46.8008 15.6917 46.9166 15.7509C47.0323 15.81 47.1317 15.8973 47.2058 16.0047C47.4987 16.3783 49.2819 18.6115 49.4886 18.933C50.0677 19.7677 50.5942 20.6383 51.065 21.5397C50.9037 22.1104 50.6505 22.6505 50.3156 23.1385V23.1472Z" fill="#FDC305"/>
<path d="M48.6363 17.8294C49.0411 18.3508 49.3943 18.8113 49.4977 18.9503C50.0768 19.7851 50.6033 20.6557 51.0741 21.5571C50.9102 22.1091 50.6601 22.6312 50.3333 23.1038C49.9543 23.4774 49.1704 23.7294 49.0411 22.5998C48.9119 21.4702 48.8602 20.7229 48.8602 20.7229C48.8602 20.7229 47.1977 17.7425 46.5775 17.7078C45.9572 17.673 41.5553 20.7229 40.3924 22.0524C39.3845 23.1733 39.1864 23.0951 39.1864 25.0675C39.1864 26.3709 39.3328 30.8458 39.2984 34.8254C40.8576 34.9992 43.149 35.4337 43.8381 36.459C43.8381 36.459 43.5883 30.2202 50.5659 33.4873C50.5659 33.4873 50.8071 24.9806 60.4378 27.1616C57.1639 23.2844 53.1505 20.1107 48.6363 17.8294Z" fill="#F06351"/>
<path d="M39.5654 15.8135C39.6004 10.9987 39.1967 6.1907 38.3594 1.45034C38.3594 1.45034 38.2302 0.320753 37.61 1.2418C37.0982 2.34291 36.7499 3.51402 36.5762 4.71747C32.8938 4.47914 29.1975 4.57802 25.5327 5.0129C24.8264 2.62338 23.6204 1.53724 23.0432 1.82398C22.466 2.11072 22.3971 4.67403 22.3971 4.67403L22.1129 16.9779C27.8956 16.1725 33.7279 15.7834 39.5654 15.8135Z" fill="#F06351"/>
<path d="M39.0651 39.9434C39.1771 39.0136 39.2374 37.7798 39.2718 36.4156L32.2515 38.3011C30.0459 38.9546 27.8019 39.4682 25.5327 39.8391L26.4889 44.1837C26.4889 44.2793 26.4889 44.3748 26.5492 44.4704C27.8522 45.3231 29.2237 46.0642 30.6494 46.6862C32.7328 45.6815 34.7171 44.4799 36.5757 43.0975V43.1497C37.5646 42.217 38.4044 41.1354 39.0651 39.9434Z" fill="#E55645"/>
<path d="M27.5657 13.0938C27.5226 13.0069 28.4271 13.6847 28.7803 13.8932C29.1334 14.1018 29.3057 14.2582 29.3057 14.4059C29.3057 14.5536 29.0817 14.7013 28.7716 14.7013C28.4615 14.7013 27.9792 14.5971 27.9103 14.4754C27.8413 14.3538 28.4271 14.4754 28.72 14.4754H28.9698C28.4394 14.084 27.9667 13.6189 27.5657 13.0938Z" fill="black"/>
<path d="M34.0264 13.1894C34.0264 13.1894 33.165 14.3016 33.0875 14.3538C33.0099 14.4059 32.941 14.6492 33.2511 14.6057C33.6071 14.5521 33.9585 14.4708 34.302 14.3624C34.3968 14.3103 34.3623 14.1887 34.1986 14.206C34.035 14.2234 33.6129 14.2495 33.3373 14.3016L34.0694 13.1981C34.0694 13.1981 34.0953 13.0938 34.0264 13.1894Z" fill="black"/>
<path d="M31.3215 18.4985C31.7208 18.321 32.0508 18.0156 32.2604 17.6296C32.5016 17.0561 32.2604 16.8389 31.8814 16.7607C31.36 16.6647 30.8218 16.7702 30.374 17.0561C30.038 17.3776 30.0811 17.6904 30.374 17.925C30.6649 18.1552 30.9832 18.3478 31.3215 18.4985Z" fill="black"/>
<path d="M31.0113 19.5933C30.9124 19.7904 30.778 19.9672 30.615 20.1147C30.3697 20.3138 30.0681 20.4294 29.7536 20.4449C29.2794 20.4918 28.8052 20.3552 28.4271 20.0625C28.2535 19.9601 28.0989 19.8278 27.9706 19.6715C27.8844 19.5769 27.7785 19.5027 27.6605 19.4543C27.6605 19.4543 28.3065 23.0255 29.8742 23.599C31.4419 24.1725 31.7348 22.9387 31.7779 22.6085C31.8304 21.6196 31.5841 20.6379 31.0715 19.7932C31.0715 19.5325 31.0543 19.7063 31.0113 19.5933Z" fill="#F06351"/>
<path d="M29.5469 20.5839C29.1438 20.5254 28.7566 20.3852 28.4087 20.1716C28.0608 19.9581 27.7594 19.6756 27.5226 19.3413C27.5015 19.3174 27.4897 19.2865 27.4897 19.2544C27.4897 19.2224 27.5015 19.1915 27.5226 19.1676C27.5339 19.156 27.5473 19.1468 27.5621 19.1405C27.5769 19.1343 27.5927 19.131 27.6088 19.131C27.6248 19.131 27.6407 19.1343 27.6555 19.1405C27.6703 19.1468 27.6837 19.156 27.6949 19.1676C27.9081 19.4692 28.1785 19.7252 28.4905 19.9206C28.8025 20.116 29.1499 20.2469 29.5124 20.3058C29.7993 20.2841 30.0769 20.194 30.3225 20.0429C30.5681 19.8919 30.7746 19.6842 30.9251 19.4369L31.0457 19.2718L31.1319 19.463C31.1319 19.463 31.4592 20.1234 31.9932 20.1581C32.5273 20.1929 32.9063 19.7932 33.3973 19.0372C33.4156 19.0096 33.444 18.9904 33.4763 18.9839C33.5086 18.9773 33.5422 18.984 33.5696 19.0025C33.597 19.0209 33.616 19.0496 33.6225 19.0822C33.629 19.1147 33.6223 19.1486 33.604 19.1762C33.0298 20.0278 32.4871 20.4362 31.976 20.4014C31.7785 20.375 31.5893 20.3043 31.4224 20.1946C31.2554 20.0848 31.115 19.9388 31.0113 19.7671C30.8427 20.0045 30.6238 20.201 30.3705 20.3423C30.1172 20.4836 29.8358 20.5661 29.5469 20.5839Z" fill="black"/>
<path d="M31.2353 32.2795C33.0192 32.2795 34.4655 30.8207 34.4655 29.0211C34.4655 27.2215 33.0192 25.7626 31.2353 25.7626C29.4513 25.7626 28.0051 27.2215 28.0051 29.0211C28.0051 30.8207 29.4513 32.2795 31.2353 32.2795Z" fill="#FDC305"/>
<path d="M35.5163 26.3709L32.8201 27.5092L33.8107 22.6172L27.3503 31.0978L30.0465 29.9595L29.0559 34.8602L35.5163 26.3709ZM29.1506 29.6988L32.734 24.998L32.0363 28.4737L33.7591 27.7611L30.1498 32.4707L30.8476 28.995L29.1506 29.6988Z" fill="#111111"/>
<path d="M27.9447 28.4215C28.4776 28.4215 28.9095 27.9858 28.9095 27.4483C28.9095 26.9109 28.4776 26.4751 27.9447 26.4751C27.4119 26.4751 26.98 26.9109 26.98 27.4483C26.98 27.9858 27.4119 28.4215 27.9447 28.4215Z" fill="#111111"/>
<path d="M33.5612 31.9493C33.9371 31.9493 34.2417 31.642 34.2417 31.2629C34.2417 30.8838 33.9371 30.5764 33.5612 30.5764C33.1854 30.5764 32.8807 30.8838 32.8807 31.2629C32.8807 31.642 33.1854 31.9493 33.5612 31.9493Z" fill="#111111"/>
<path d="M34.3882 30.0638C34.5547 30.0638 34.6897 29.9276 34.6897 29.7597C34.6897 29.5917 34.5547 29.4555 34.3882 29.4555C34.2217 29.4555 34.0867 29.5917 34.0867 29.7597C34.0867 29.9276 34.2217 30.0638 34.3882 30.0638Z" fill="#111111"/>
<path d="M39.5224 17.3863C37.9674 18.8002 36.5029 20.3123 35.1377 21.9133C33.7778 23.5028 32.2433 24.9312 30.5635 26.171C30.374 25.7105 29.1594 24.8503 29.1594 24.8503C29.1594 24.8503 26.4545 22.9821 24.6799 21.5136C23.7207 20.7077 22.8169 19.8368 21.9751 18.9069L20.2522 18.8113C22.7392 22.4757 26.3826 25.183 30.5893 26.4925C31.3302 26.3709 33.4148 24.8677 34.974 23.6425C36.8187 22.0601 38.5461 20.3437 40.1426 18.5072C40.5717 17.9928 40.9044 17.4039 41.1246 16.7693C40.1426 17.0995 39.5224 17.3863 39.5224 17.3863Z" fill="#F06351"/>
<path d="M22.3368 23.3297C22.3368 23.3297 19.0548 22.0784 17.8488 21.7396C17.2825 21.4897 16.6572 21.4084 16.0466 21.5054C15.4361 21.6024 14.8658 21.8736 14.4031 22.287C13.931 22.7039 13.5536 23.2185 13.2964 23.7958C13.0393 24.373 12.9084 24.9994 12.9128 25.6323C13.0949 26.0362 13.2335 26.4585 13.3263 26.8922C13.3694 27.3093 12.2926 27.2659 11.6034 27.2659C10.9143 27.2659 10.8109 26.0146 11.3536 24.5462C11.777 23.417 12.3018 22.3292 12.9214 21.2964C8.22664 23.7641 0 29.4642 0 29.4642C2.35316 29.3211 4.71429 29.3909 7.0551 29.6728C11.5776 30.1333 11.3622 33.7306 11.3622 33.7306C12.9529 33.2883 14.574 32.9659 16.2121 32.7661C18.0383 32.6445 18.1675 34.6082 18.1675 34.6082L18.6241 37.9622C19.3173 37.2057 20.0819 36.5189 20.9069 35.9116C21.9703 35.0529 23.3243 34.6476 24.6799 34.782L22.3368 23.3297Z" fill="#F06351"/>
</svg>
<svg id="logo-img-desktop" viewBox="0 0 71 60" fill="none">
<path d="M59.8825 24.2098C58.1585 20.0433 55.3821 16.4052 51.83 13.6582C48.2778 10.9111 44.074 9.15109 39.6374 8.55344C35.2008 7.95579 30.6864 8.54141 26.5441 10.2519C22.4017 11.9624 18.7762 14.7381 16.0287 18.3023C13.2812 21.8666 11.5077 26.0948 10.885 30.5658C10.2622 35.0368 10.812 39.5943 12.4795 43.7842C14.147 47.9741 16.874 51.65 20.3887 54.4457C23.9034 57.2413 28.083 59.059 32.5111 59.7176C31.9311 57.6093 31.3411 55.2791 30.8211 52.8077C32.3339 53.7975 33.9262 54.658 35.5813 55.38C35.5813 55.38 35.7013 57.5588 35.8613 59.9899C37.6496 60.021 39.4362 59.8621 41.1916 59.5158C41.1462 59.2623 41.1462 59.0027 41.1916 58.7492C41.4816 56.8628 42.2816 53.4634 42.4416 51.2744C43.595 50.1862 44.5734 48.9236 45.3418 47.5319L45.2818 47.9758C44.7317 52.273 43.5817 56.8628 42.8817 58.1338C42.655 58.5546 42.3761 58.9444 42.0516 59.2939C45.6716 58.4373 49.0636 56.7968 51.9924 54.4862C54.9212 52.1755 57.3168 49.25 59.013 45.9125C60.7093 42.5749 61.6656 38.9052 61.8158 35.1577C61.9659 31.4102 61.3062 27.6746 59.8825 24.2098ZM58.4124 28.033C57.9724 28.4667 57.0624 28.7592 56.9123 27.4479C56.7623 26.1365 56.7223 25.2186 56.7223 25.2186C56.7223 25.2186 54.7922 21.7586 54.0722 21.7182C53.3522 21.6779 48.2419 25.2186 46.8918 26.7619C45.7218 28.0632 45.4918 27.9724 45.4918 30.2623C45.4918 31.9872 45.7118 38.5037 45.5918 43.4869L37.4414 45.6759C34.8796 46.4175 32.2744 46.9969 29.641 47.4109L28.6409 41.5299H28.5009L25.9308 28.2448C25.9308 28.2448 22.1206 26.7922 20.7206 26.3988C20.0632 26.1087 19.3372 26.0144 18.6284 26.127C17.9196 26.2396 17.2575 26.5544 16.7204 27.0343C16.1723 27.5183 15.7342 28.1157 15.4356 28.7859C15.1371 29.4561 14.9852 30.1833 14.9903 30.918C15.2017 31.3868 15.3626 31.8772 15.4703 32.3806C15.5203 32.8648 14.2702 32.8144 13.4702 32.8144C12.6702 32.8144 12.5502 31.3618 13.1802 29.657C13.6717 28.3462 14.2809 27.0834 15.0003 25.8843C15.5413 24.8133 16.2392 23.8305 17.0704 22.9691C17.0704 22.9691 17.2104 22.6261 18.3204 22.727C19.4305 22.8278 25.6008 23.1607 25.6008 23.1607L25.6508 20.8709C32.3575 19.9368 39.1216 19.4851 45.8918 19.5192C45.8918 20.1345 45.8918 20.7498 45.8918 21.3652C48.4562 20.1847 51.2175 19.5004 54.0322 19.3477C54.1828 19.3438 54.332 19.3778 54.4664 19.4464C54.6008 19.5151 54.7162 19.6163 54.8022 19.7411C55.1423 20.1749 57.2124 22.7673 57.4524 23.1406C58.1246 24.1097 58.7359 25.1204 59.2825 26.1668C59.0951 26.8293 58.8012 27.4564 58.4124 28.0229V28.033Z" fill="#FDC305"/>
<path d="M56.4628 21.8594C56.9329 22.4647 57.3429 22.9993 57.4629 23.1607C58.1351 24.1298 58.7464 25.1406 59.293 26.1869C59.1027 26.8278 58.8124 27.4339 58.4329 27.9825C57.9929 28.4163 57.0829 28.7088 56.9329 27.3974C56.7829 26.0861 56.7229 25.2186 56.7229 25.2186C56.7229 25.2186 54.7928 21.7586 54.0727 21.7182C53.3527 21.6779 48.2424 25.2186 46.8924 26.7619C45.7223 28.0632 45.4923 27.9724 45.4923 30.2623C45.4923 31.7754 45.6623 36.9704 45.6223 41.5904C47.4324 41.7922 50.0925 42.2966 50.8926 43.4869C50.8926 43.4869 50.6026 36.2441 58.703 40.037C58.703 40.037 58.983 30.1614 70.1635 32.6933C66.3628 28.1922 61.7035 24.5079 56.4628 21.8594Z" fill="#F06351"/>
<path d="M45.9323 19.5192C45.9729 13.9295 45.5043 8.34783 44.5322 2.84465C44.5322 2.84465 44.3822 1.53329 43.6622 2.60255C43.068 3.88085 42.6636 5.24042 42.4621 6.63752C38.1871 6.36084 33.896 6.47563 29.6415 6.9805C28.8214 4.20645 27.4214 2.94553 26.7513 3.27841C26.0813 3.6113 26.0013 6.58709 26.0013 6.58709L25.6713 20.8709C32.3846 19.9359 39.1554 19.4841 45.9323 19.5192Z" fill="#F06351"/>
<path d="M45.3515 47.5319C45.4815 46.4526 45.5515 45.0202 45.5915 43.4364L37.4415 45.6254C34.8809 46.384 32.2758 46.9804 29.6415 47.4109L30.7515 52.4546C30.7515 52.5656 30.7515 52.6765 30.8215 52.7875C32.3342 53.7774 33.9265 54.6378 35.5815 55.3598C38.0002 54.1935 40.3038 52.7986 42.4615 51.1937V51.2542C43.6096 50.1714 44.5845 48.9158 45.3515 47.5319Z" fill="#E55645"/>
<path d="M32.0016 16.3618C31.9516 16.2609 33.0016 17.0477 33.4116 17.2898C33.8216 17.5319 34.0216 17.7135 34.0216 17.885C34.0216 18.0565 33.7616 18.228 33.4016 18.228C33.0416 18.228 32.4816 18.1069 32.4016 17.9657C32.3216 17.8245 33.0016 17.9657 33.3416 17.9657H33.6316C33.0159 17.5114 32.4672 16.9714 32.0016 16.3618Z" fill="black"/>
<path d="M39.502 16.4728C39.502 16.4728 38.502 17.764 38.412 17.8245C38.322 17.885 38.2419 18.1675 38.6019 18.117C39.0152 18.0548 39.4231 17.9604 39.8219 17.8346C39.9319 17.774 39.892 17.6328 39.702 17.653C39.512 17.6732 39.022 17.7034 38.702 17.764L39.5519 16.4829C39.5519 16.4829 39.582 16.3618 39.502 16.4728Z" fill="black"/>
<path d="M36.3617 22.6362C36.8253 22.4302 37.2084 22.0756 37.4517 21.6274C37.7317 20.9617 37.4517 20.7095 37.0117 20.6187C36.4064 20.5073 35.7817 20.6297 35.2617 20.9617C34.8717 21.3349 34.9217 21.6981 35.2617 21.9704C35.5995 22.2376 35.9691 22.4613 36.3617 22.6362Z" fill="black"/>
<path d="M36.0016 23.9072C35.8868 24.136 35.7308 24.3412 35.5416 24.5124C35.2568 24.7436 34.9067 24.8778 34.5416 24.8958C33.991 24.9503 33.4405 24.7916 33.0016 24.4519C32.8 24.333 32.6206 24.1793 32.4716 23.998C32.3715 23.8881 32.2486 23.802 32.1116 23.7458C32.1116 23.7458 32.8616 27.8917 34.6816 28.5575C36.5016 29.2233 36.8416 27.7909 36.8916 27.4075C36.9525 26.2595 36.6666 25.1198 36.0716 24.1392C36.0716 23.8366 36.0516 24.0383 36.0016 23.9072Z" fill="#F06351"/>
<path d="M34.3015 25.0572C33.8335 24.9893 33.384 24.8265 32.9801 24.5786C32.5763 24.3306 32.2263 24.0027 31.9515 23.6147C31.9269 23.5869 31.9133 23.551 31.9133 23.5138C31.9133 23.4766 31.9269 23.4407 31.9515 23.4129C31.9646 23.3995 31.9801 23.3888 31.9973 23.3816C32.0145 23.3743 32.0329 23.3705 32.0515 23.3705C32.0702 23.3705 32.0886 23.3743 32.1058 23.3816C32.1229 23.3888 32.1385 23.3995 32.1515 23.4129C32.399 23.7631 32.7129 24.0603 33.0751 24.2871C33.4374 24.5139 33.8406 24.666 34.2615 24.7344C34.5945 24.7091 34.9168 24.6045 35.2019 24.4292C35.487 24.2538 35.7268 24.0127 35.9015 23.7256L36.0415 23.534L36.1415 23.7559C36.1415 23.7559 36.5215 24.5225 37.1415 24.5629C37.7615 24.6032 38.2015 24.1392 38.7715 23.2616C38.7927 23.2295 38.8257 23.2072 38.8632 23.1996C38.9007 23.1921 38.9397 23.1998 38.9715 23.2212C39.0034 23.2427 39.0254 23.2759 39.0329 23.3138C39.0404 23.3516 39.0327 23.3909 39.0115 23.423C38.3449 24.4116 37.7149 24.8857 37.1215 24.8453C36.8922 24.8147 36.6726 24.7326 36.4788 24.6052C36.285 24.4778 36.1219 24.3082 36.0015 24.1089C35.8059 24.3845 35.5518 24.6127 35.2577 24.7767C34.9636 24.9407 34.6369 25.0365 34.3015 25.0572Z" fill="black"/>
<path d="M36.2616 38.6348C38.3327 38.6348 40.0116 36.9412 40.0116 34.8521C40.0116 32.7629 38.3327 31.0693 36.2616 31.0693C34.1905 31.0693 32.5116 32.7629 32.5116 34.8521C32.5116 36.9412 34.1905 38.6348 36.2616 38.6348Z" fill="#FDC305"/>
<path d="M41.2316 31.7754L38.1016 33.0968L39.2516 27.4176L31.7516 37.2629L34.8816 35.9415L33.7316 41.6308L41.2316 31.7754ZM33.8416 35.6389L38.0016 30.1816L37.1916 34.2165L39.1916 33.3894L35.0016 38.8568L35.8116 34.8218L33.8416 35.6389Z" fill="#111111"/>
<path d="M32.4415 34.156C33.0601 34.156 33.5615 33.6502 33.5615 33.0262C33.5615 32.4023 33.0601 31.8964 32.4415 31.8964C31.823 31.8964 31.3215 32.4023 31.3215 33.0262C31.3215 33.6502 31.823 34.156 32.4415 34.156Z" fill="#111111"/>
<path d="M38.9619 38.2515C39.3982 38.2515 39.7519 37.8947 39.7519 37.4546C39.7519 37.0145 39.3982 36.6577 38.9619 36.6577C38.5256 36.6577 38.1719 37.0145 38.1719 37.4546C38.1719 37.8947 38.5256 38.2515 38.9619 38.2515Z" fill="#111111"/>
<path d="M39.9219 36.0625C40.1152 36.0625 40.2719 35.9045 40.2719 35.7095C40.2719 35.5145 40.1152 35.3564 39.9219 35.3564C39.7286 35.3564 39.5719 35.5145 39.5719 35.7095C39.5719 35.9045 39.7286 36.0625 39.9219 36.0625Z" fill="#111111"/>
<path d="M45.8822 21.345C44.077 22.9865 42.3768 24.7419 40.792 26.6005C39.2133 28.4458 37.4318 30.1041 35.4817 31.5434C35.2617 31.0087 33.8516 30.0101 33.8516 30.0101C33.8516 30.0101 30.7115 27.8413 28.6514 26.1365C27.5377 25.2009 26.4886 24.1898 25.5112 23.1103L23.5111 22.9993C26.3983 27.2534 30.628 30.3963 35.5117 31.9166C36.3717 31.7754 38.7919 30.0303 40.602 28.6079C42.7434 26.7709 44.7489 24.7784 46.6022 22.6463C47.1004 22.0491 47.4867 21.3654 47.7423 20.6288C46.6023 21.0121 45.8822 21.345 45.8822 21.345Z" fill="#F06351"/>
<path d="M65.2227 3.5306L56.7627 13.0531L55.5427 11.0457L63.6927 0L65.2227 3.5306Z" fill="#FDC305"/>
<path d="M62.6531 17.4109L68.1931 13.265L67.4131 9.49226L62.0131 14.3443L62.6531 17.4109Z" fill="#FDC305"/>
<path d="M59.923 49.8016L66.053 53.0094L69.063 50.649L62.373 47.8749L59.923 49.8016Z" fill="#FDC305"/>
<path d="M1.94995 6.02219L5.01995 2.63282L14.31 11.7115L13.09 14.0114L1.94995 6.02219Z" fill="#FDC305"/>
<path d="M7.38003 16.4223L2.68003 13.265L0.280029 17.1688L5.43003 19.5898L7.38003 16.4223Z" fill="#FDC305"/>
<path d="M13.91 53.0094L9.35999 56.3887L12.16 60L16.18 55.9449L13.91 53.0094Z" fill="#FDC305"/>
<path d="M25.9313 28.2448C25.9313 28.2448 22.1211 26.7922 20.721 26.3988C20.0636 26.1087 19.3377 26.0144 18.6289 26.127C17.9201 26.2396 17.258 26.5544 16.7208 27.0343C16.1728 27.5183 15.7346 28.1157 15.4361 28.7859C15.1375 29.4561 14.9856 30.1833 14.9907 30.918C15.2021 31.3868 15.3631 31.8772 15.4708 32.3806C15.5208 32.8648 14.2707 32.8144 13.4707 32.8144C12.6706 32.8144 12.5506 31.3618 13.1807 29.657C13.6722 28.3462 14.2814 27.0834 15.0007 25.8843C9.55047 28.7492 0 35.3665 0 35.3665C2.73182 35.2003 5.47292 35.2814 8.1904 35.6086C13.4407 36.1432 13.1907 40.3194 13.1907 40.3194C15.0373 39.8059 16.9192 39.4316 18.8209 39.1997C20.941 39.0585 21.091 41.3383 21.091 41.3383L21.6211 45.232C22.4259 44.3537 23.3134 43.5564 24.2712 42.8514C25.5057 41.8545 27.0776 41.3839 28.6514 41.54L25.9313 28.2448Z" fill="#F06351"/>
</svg>
<svg id="logo-text-tablet" viewBox="0 0 102 20" fill="none">
<path d="M1.78992 17.4945C0.902539 16.1681 0.478241 14.5814 0.583977 12.9848V6.46795C0.472038 4.85958 0.889922 3.25895 1.77269 1.91483C2.5709 0.87792 3.93476 0.362364 5.86427 0.368157C7.79377 0.37395 9.10021 0.828683 9.78358 1.73236C10.6168 2.85221 11.0234 4.23682 10.9292 5.63379V7.16309H7.36308V5.50346C7.35827 5.06678 7.32084 4.63108 7.2511 4.20008C7.20799 3.88806 7.06596 3.59849 6.84625 3.37461C6.71061 3.25728 6.55315 3.16841 6.38306 3.11321C6.21297 3.058 6.03367 3.03757 5.85565 3.05311C5.6 3.01462 5.3388 3.05654 5.10761 3.17315C4.87641 3.28975 4.68645 3.47539 4.56357 3.7048C4.33709 4.31502 4.2374 4.96569 4.27071 5.61641V13.8885C4.23141 14.5435 4.34653 15.1986 4.60665 15.8001C4.73093 16.0171 4.91535 16.1927 5.13724 16.3054C5.35914 16.4181 5.60884 16.463 5.85565 16.4344C6.09818 16.469 6.34535 16.4255 6.5619 16.31C6.77846 16.1946 6.95333 16.0131 7.06159 15.7914C7.26996 15.1801 7.36059 14.5342 7.32862 13.8885V12.1507H10.8948V13.6539C10.9997 15.0715 10.6263 16.4832 9.83526 17.6596C9.07724 18.6154 7.76793 19.0846 5.90734 19.0846C4.04675 19.0846 2.59101 18.5633 1.78992 17.4945Z" fill="#111111"/>
<path d="M15.788 0.62014H19.871L23.3166 18.8674H19.9227L19.3111 14.8356H16.4513L15.7622 18.8413H12.3167L15.788 0.62014ZM18.9321 12.5417L17.8468 5.20802L16.77 12.5417H18.9321Z" fill="#111111"/>
<path d="M25.9615 3.36592H23.1707V0.62014H32.4047V3.36592H29.6483V18.8413H25.9529L25.9615 3.36592Z" fill="#111111"/>
<path d="M39.6498 0.62014H46.6528V2.51438H42.1736V8.53597H45.8087V10.3346H42.1736V17.0166H46.6959V18.8413H39.6498V0.62014Z" fill="#444444"/>
<path d="M48.7292 0.62014H50.452L55.6203 12.7241V0.62014H57.7221V18.8674H56.1113L50.943 6.4245V18.8413H48.8068L48.7292 0.62014Z" fill="#444444"/>
<path d="M60.505 0.62014H67.4995V2.51438H63.0203V8.53597H66.6898V10.3346H63.0547V17.0166H67.5511V18.8413H60.505V0.62014Z" fill="#444444"/>
<path d="M69.5758 0.620143H73.2108C74.6434 0.503862 76.0699 0.907537 77.2335 1.75842C78.0949 2.51438 78.517 3.74824 78.517 5.46001C78.517 7.77712 77.7733 9.19345 76.286 9.70901L78.8701 18.8413H76.4238L74.055 10.2912H72.0997V18.8413H69.5758V0.620143ZM73.0213 8.44039C73.8512 8.52138 74.681 8.28577 75.3471 7.78002C75.6178 7.45685 75.8201 7.08124 75.9416 6.67629C76.063 6.27133 76.1011 5.8456 76.0534 5.42525C76.0707 4.83574 75.9862 4.24769 75.8036 3.68742C75.7295 3.48083 75.6152 3.29133 75.4672 3.13014C75.3192 2.96895 75.1407 2.83934 74.9422 2.74899C74.383 2.51756 73.78 2.41371 73.1764 2.44487H72.0652V8.47515L73.0213 8.44039Z" fill="#444444"/>
<path d="M81.9114 17.4945C81.0881 16.0926 80.7065 14.4714 80.8175 12.8458V6.76338C80.7878 5.58961 80.933 4.418 81.2481 3.28772C81.4969 2.43796 82.0257 1.69925 82.747 1.19363C83.6178 0.664236 84.6259 0.410021 85.6412 0.463738C86.298 0.400732 86.9605 0.483172 87.5824 0.705297C88.2043 0.927422 88.7707 1.28387 89.2418 1.74973C90.0683 2.91759 90.4588 4.34258 90.3444 5.77282V6.45057H87.9756V5.88578C87.9917 5.21025 87.9398 4.53482 87.8205 3.86989C87.7421 3.44375 87.5086 3.06256 87.1659 2.80112C86.7187 2.53492 86.2024 2.41078 85.6843 2.44487C85.1216 2.39631 84.5624 2.57086 84.1252 2.93146C83.7679 3.27339 83.5345 3.72611 83.4619 4.21746C83.3528 4.93321 83.3038 5.65699 83.3155 6.38106V13.1499C83.2471 14.1785 83.4213 15.2088 83.8237 16.1564C84.0574 16.4478 84.3541 16.6814 84.6911 16.8395C85.028 16.9975 85.3964 17.0757 85.7679 17.0682C86.1394 17.0606 86.5043 16.9675 86.8347 16.7959C87.1651 16.6243 87.4522 16.3788 87.6741 16.0782C88.0892 15.076 88.269 13.9905 88.1995 12.9066V11.6206H85.9083V9.82197H90.4736V18.8413H88.9145L88.6647 16.7472C88.4673 17.4429 88.0423 18.0508 87.459 18.472C86.8757 18.8933 86.1682 19.103 85.4517 19.0672C84.778 19.1272 84.1003 19.0144 83.4814 18.7395C82.8624 18.4645 82.3224 18.0363 81.9114 17.4945V17.4945Z" fill="#444444"/>
<path d="M95.7113 12.4113L91.8093 0.62014H94.1522L96.9173 9.41358L99.6393 0.62014H102.008L98.1318 12.4113V18.8413H95.72L95.7113 12.4113Z" fill="#444444"/>
</svg>
</svg>
